<svg xmlns="http://www.w3.org/2000/svg" width="35.818" height="43.933" viewBox="0 0 35.818 43.933">
  <g id="Group_13" data-name="Group 13" transform="translate(-104.314 -20.589)">
    <path id="Path_7" data-name="Path 7" d="M129.4,226.607a10.471,10.471,0,0,1,3.258.78,11.663,11.663,0,0,1,7.4,9.807,9.122,9.122,0,0,1-.158,3.246,4.959,4.959,0,0,1-3.627,3.768,14.005,14.005,0,0,1-3.575.581c-1.1.053-2.211.089-3.317.091q-7.626.01-15.252-.008a22.984,22.984,0,0,1-4.925-.4,10.283,10.283,0,0,1-1.8-.562,4.834,4.834,0,0,1-2.987-4.116,11.787,11.787,0,0,1,9.789-13.08c.267-.043.537-.075.779-.108a19.325,19.325,0,0,0,2.589,5.084c.934,1.475,1.935,2.908,2.906,4.359.037.056.079.108.159.215.05-.682.1-1.3.14-1.917.062-.893.115-1.787.186-2.68a.372.372,0,0,0-.2-.4,2.67,2.67,0,0,1-1.2-1.662,4.29,4.29,0,0,1-.057-.434,6.968,6.968,0,0,0,5.419,0,3.53,3.53,0,0,1-.048.433,2.812,2.812,0,0,1-1.24,1.7.382.382,0,0,0-.155.281c.093,1.489.2,2.978.3,4.466,0,.049.014.1.028.2.153-.216.28-.391.4-.569a70.5,70.5,0,0,0,4.293-6.78A6.7,6.7,0,0,0,129.4,226.607Z" transform="translate(0 -180.362)" fill="#27536c"/>
    <path id="Path_8" data-name="Path 8" d="M145.748,27.2c.031.279.015.483.3.621a.641.641,0,0,1,.029,1.112.319.319,0,0,0-.16.34q.253,3.427.492,6.855a2.253,2.253,0,0,1-.06.731c-.144.532-.324,1.055-.5,1.579a.312.312,0,0,1-.15.162c-.023.011-.124-.068-.141-.122a6.757,6.757,0,0,1-.58-2.281c.018-.543.074-1.086.114-1.628.129-1.786.259-3.572.38-5.358a.332.332,0,0,0-.127-.242.674.674,0,0,1,.1-1.207c.244-.115.152-.328.183-.5.01-.055-.123-.159-.21-.2-.273-.14-.567-.24-.83-.4-.435-.259-.437-.632-.015-.908a3.237,3.237,0,0,1,.494-.245q5.334-2.309,10.67-4.613a3.548,3.548,0,0,1,2.892,0q5.412,2.326,10.814,4.677a2.062,2.062,0,0,1,.435.242.446.446,0,0,1-.005.786,2.256,2.256,0,0,1-.459.252c-1.141.5-2.282.995-3.429,1.479a.318.318,0,0,0-.227.351c.008,1.054,0,2.107.009,3.161a.3.3,0,0,1-.22.329c-2.319,1-4.631,2.013-6.955,3a3.483,3.483,0,0,1-2.795.006c-2.333-.989-4.652-2.008-6.98-3.008a.3.3,0,0,1-.212-.334c.009-1.053,0-2.107.009-3.161a.317.317,0,0,0-.233-.346C147.511,27.968,146.654,27.591,145.748,27.2Z" transform="translate(-34.966 0)" fill="#27536c"/>
    <path id="Path_9" data-name="Path 9" d="M176.628,123.341c.691.3,1.357.583,2.022.871,1.625.7,3.245,1.419,4.876,2.107a4.857,4.857,0,0,0,3.916,0c2.2-.936,4.394-1.9,6.59-2.849.094-.041.19-.077.325-.131.02.343.061.657.052.969a17.966,17.966,0,0,1-1.873,8.025,10.638,10.638,0,0,1-2.953,3.625,6.485,6.485,0,0,1-8.366-.129,11.814,11.814,0,0,1-3.527-5.152,17.479,17.479,0,0,1-1.055-4.976c-.048-.655-.041-1.314-.052-1.971A3.117,3.117,0,0,1,176.628,123.341Z" transform="translate(-63.271 -89.955)" fill="#27536c"/>
  </g>
</svg>
